<svg width="24" height="24" viewBox="0 0 21 24" fill="none" xmlns="http://www.w3.org/2000/svg">
<path d="M20.3093 7.75476C20.4997 8.66056 20.5218 9.59366 20.3746 10.5075C20.0562 15.6021 16.9516 18.8492 12.6753 20.9085C8.91241 22.7203 5.00863 22.2307 1.44714 19.9079C1.13236 19.7429 0.847643 19.5259 0.604933 19.2663C0.403159 19.1086 0.267018 18.8817 0.222834 18.6295C-0.573206 16.7237 0.946434 16.6091 1.87939 16.9872C4.42035 18.0165 6.19234 16.7659 8.02403 15.4206L8.46901 14.8276C9.46565 12.0988 10.4902 9.38107 11.4438 6.63792C11.5626 6.17264 11.828 5.75796 12.2008 5.45519C12.5735 5.15242 13.0338 4.97763 13.5135 4.95668H13.6441C16.2312 3.76262 17.7946 4.47348 19.4918 6.36567C19.8717 6.7565 20.1521 7.23291 20.3093 7.75476Z" fill="#9B9B9B"/>
<path d="M13.2479 6.42035C13.1859 6.37706 13.136 6.31857 13.1031 6.25049C13.0702 6.1824 13.0553 6.10701 13.0598 6.03151C13.0644 5.95602 13.0882 5.88296 13.1291 5.81933C13.17 5.7557 13.2265 5.70363 13.2933 5.6681C14.6083 5.20321 15.3853 5.17614 16.2514 4.5823C17.0633 4.02507 17.9955 3.53789 18.0767 2.25149C18.1165 1.62103 16.6438 0.329057 16.2983 1.60193C16.0858 2.39 15.769 2.39796 15.4131 2.01746C15.2995 1.88079 15.2408 1.70678 15.2483 1.52922C15.2558 1.35166 15.329 1.18323 15.4537 1.05664C15.7107 0.792082 16.0211 0.585371 16.3643 0.450297C16.7075 0.315223 17.0755 0.254894 17.4438 0.273334C18.2574 0.324281 19.2286 1.11714 19.0112 2.94405C18.8816 3.64441 18.8052 4.35359 18.7828 5.06549C18.7372 6.11139 18.9887 7.14881 19.508 8.05781C19.5108 8.10824 19.5013 8.15859 19.4802 8.20449C19.4591 8.25038 19.4271 8.29042 19.387 8.32111C19.3469 8.3518 19.2999 8.37222 19.25 8.38058C19.2002 8.38893 19.1491 8.38498 19.1012 8.36906C18.8624 8.05861 18.852 7.6176 18.1348 7.36048C17.4176 7.23198 16.6781 7.33455 16.0229 7.65342C15.6878 6.57956 15.3526 6.25796 14.2676 6.43389C13.9292 6.48403 13.5849 6.47946 13.2479 6.42035Z" fill="#9B9B9B"/>
</svg>
