<svg xmlns="http://www.w3.org/2000/svg" viewBox="0 0 210 240" role="img" aria-label="Dexscreener logo"><path d="M97.7273 0.316403C92.1429 0.803244 85.2126 2.37832 79.4277 4.49751C71.1801 7.4472 61.2428 13.2034 54.1979 19.1028C48.2699 24.0285 41.6545 31.2165 37.4448 37.2591C36.5284 38.5765 35.7265 39.722 35.6692 39.7792C35.4974 40.0083 29.9131 36.1136 26.8488 33.5935C25.1306 32.1902 22.1236 29.4983 20.1762 27.6655C18.2575 25.804 16.6824 24.3435 16.6824 24.4294C16.6824 24.859 18.9734 30.1569 20.434 33.0207C24.1569 40.4952 28.7962 46.5091 37.7025 55.4441C48.6135 66.3837 60.6414 76.2924 75.2466 86.4015C81.0028 90.3822 89.6801 95.9379 90.1383 95.9379C90.3101 95.9379 90.711 95.6515 91.026 95.3365C91.8852 94.3915 94.8062 92.3868 96.8395 91.3845C99.3883 90.0958 103.34 89.2653 105.889 89.4658C109.841 89.7808 113.879 91.4418 117.688 94.3628C118.833 95.222 119.836 95.9379 119.893 95.9379C120.093 95.9379 129.286 90.0958 132.665 87.8334C154.831 72.8559 174.247 55.5586 183.669 42.3566C187.392 37.1446 190.571 31.2738 192.346 26.4054L193.091 24.2862L189.454 27.7227C184.815 32.0757 180.634 35.5122 177.083 37.9178C175.536 38.9487 174.19 39.8079 174.104 39.8079C174.018 39.8079 173.216 38.7483 172.3 37.4309C169.694 33.708 166.315 29.6415 162.735 25.9472C144.665 7.24674 121.554 -1.86007 97.7273 0.316403ZM25.3024 59.9975C22.3813 67.7583 21.1499 75.9487 20.6917 90.3535C20.3481 100.892 19.8612 107.193 18.8302 113.722C16.5679 128.155 13.3891 138.35 6.60192 152.755C5.19867 155.734 4.11044 158.225 4.19635 158.282C4.54 158.655 11.1553 154.244 15.2505 150.922C16.7397 149.691 19.6321 147.085 21.694 145.109C23.7273 143.133 25.4456 141.529 25.4742 141.558C25.5601 141.672 23.8419 150.063 23.2691 152.211C20.6058 162.12 16.3674 171.742 10.6112 180.849C8.74975 183.799 4.56864 189.755 1.21803 194.223C0.444806 195.311 -0.0993145 196.17 0.0152365 196.17C0.158425 196.17 1.90533 195.34 3.96725 194.337C14.3914 189.154 23.2405 182.453 31.6313 173.317L34.0942 170.654L34.8674 174.033C36.7861 182.309 40.2513 191.674 44.5756 200.294C47.1244 205.391 51.9355 213.983 52.136 213.782C52.1932 213.754 52.7374 212.179 53.396 210.317C54.7706 206.279 57.5199 200.151 60.0113 195.597C62.0446 191.903 65.7103 185.889 65.9394 185.86C66.0253 185.86 66.7126 187.063 67.4858 188.524C72.6692 198.203 79.8 208.542 90.8828 222.374C93.8039 225.982 98.0996 231.395 100.448 234.401C102.768 237.38 104.744 239.9 104.829 239.986C104.887 240.072 105.202 239.757 105.545 239.299C105.86 238.84 109.24 234.602 113.02 229.905C129.028 210.002 135.271 201.182 142.03 188.925C143.319 186.605 143.805 185.918 144.035 186.204C144.894 187.235 148.473 193.364 150.449 197.172C153.37 202.814 155.289 207.081 156.463 210.718C157.007 212.322 157.494 213.639 157.58 213.639C158.038 213.639 162.821 205.048 165.857 198.747C169.894 190.385 172.701 182.71 174.62 174.892C175.164 172.687 175.651 170.826 175.708 170.797C175.765 170.74 177.025 172.057 178.514 173.718C183.526 179.388 190.428 185.202 197.358 189.583C200.623 191.645 209.042 196.17 209.644 196.17C209.844 196.17 208.298 193.936 206.264 191.187C200.107 182.911 196.384 176.897 192.948 169.709C188.767 160.946 186.447 153.528 184.385 142.388C184.242 141.501 184.528 141.73 188.452 145.453C193.005 149.777 196.47 152.698 199.764 154.874C202.083 156.449 205.319 158.368 205.634 158.368C205.749 158.368 204.775 156.22 203.487 153.614C196.27 138.952 191.831 123.946 190.113 108.309C189.884 106.219 189.54 101.207 189.368 97.1407C188.538 76.8652 188.194 73.1136 186.619 66.9278C185.817 63.7777 184.586 59.6825 184.156 58.9093C183.927 58.4797 183.096 59.2243 178.543 63.8063C175.593 66.7846 172.071 70.2498 170.668 71.4812L168.176 73.7436L168.606 75.1755C169.952 79.5857 170.41 87.0029 169.637 91.3559C167.374 103.813 157.924 113.149 145.065 115.583C142.288 116.099 136.102 116.213 133.553 115.755L132.035 115.497L132.207 116.385C132.293 116.872 132.694 118.619 133.095 120.28C133.467 121.941 133.897 124.146 133.983 125.206L134.183 127.153L140.655 131.248C151.251 137.949 154.688 140.183 154.688 140.326C154.716 140.412 153.714 141.042 152.483 141.73C146.526 145.109 139.71 149.949 136.13 153.357C128.055 161.032 121.067 174.176 111.76 199.177C109.669 204.847 105.545 216.503 105.316 217.448C105.202 217.877 105.03 218.221 104.915 218.221C104.829 218.192 104.314 216.875 103.77 215.271C102.137 210.231 96.8968 195.97 94.5771 190.156C86.3008 169.451 79.886 158.741 71.4092 151.467C68.4595 148.946 62.3024 144.679 58.2072 142.331C57.033 141.644 55.8016 140.928 55.5152 140.727C55.0284 140.384 55.4579 140.04 60.04 137.033C62.8178 135.2 67.3999 132.279 70.1777 130.532C72.9556 128.785 75.3039 127.325 75.3612 127.268C75.4185 127.21 75.6476 126.008 75.848 124.576C76.2203 122.113 77.3658 117.044 77.8527 115.87C78.0245 115.412 77.9672 115.354 77.3372 115.497C73.6715 116.414 66.9703 116.271 62.6174 115.154C54.5129 113.063 47.4107 107.88 43.6306 101.293C39.5067 94.0764 38.6189 84.7692 41.225 75.5192L41.6832 73.8295L37.5593 69.9634C35.297 67.8156 31.7459 64.3504 29.684 62.2026L25.9038 58.3365L25.3024 59.9975ZM50.9332 82.2777C50.2172 85.1128 50.5036 89.4944 51.6205 92.7877C54.5415 101.408 63.4765 106.706 73.4138 105.675C77.5949 105.245 82.1197 103.956 81.5183 103.384C81.3751 103.269 77.9099 100.921 73.8147 98.1716C66.5694 93.3319 60.0113 88.6066 54.4843 84.2537C52.9951 83.0795 51.6205 81.9913 51.4487 81.8481C51.2196 81.6763 51.0477 81.8195 50.9332 82.2777ZM157.007 82.9364C151.595 87.3466 143.805 92.9309 134.727 98.9735C126.852 104.214 127.196 103.613 131.52 104.816C134.555 105.675 140.598 105.904 143.691 105.274C147.271 104.558 150.936 102.582 153.6 99.9472C155.404 98.1716 156.005 97.3125 157.093 95.0788C157.809 93.5896 158.554 91.6422 158.754 90.7831C159.184 89.0648 159.213 83.6809 158.812 82.4209L158.583 81.6763L157.007 82.9364ZM102.51 100.062C96.6677 102.152 90.6824 110.314 87.7327 120.194C87.0167 122.686 86.129 127.525 85.5562 132.308L85.3844 133.625L80.3155 136.689C77.5377 138.379 75.0748 139.868 74.8743 140.011C74.6166 140.155 75.2466 140.813 77.0222 142.245C80.4301 144.966 85.9858 150.779 88.2768 154.015C93.2311 161.003 98.2427 170.654 102.882 182.138C103.856 184.572 104.715 186.691 104.801 186.806C104.887 186.92 105.803 184.858 106.891 182.223C112.504 168.334 117.745 158.569 123.415 151.495C125.735 148.603 129.572 144.794 132.694 142.302L135.271 140.241L134.326 139.61C133.811 139.267 131.348 137.806 128.885 136.346L124.389 133.682L124.246 132.508C122.728 120.538 121.01 115.097 116.8 108.739C112.218 101.866 106.748 98.5439 102.51 100.062Z" fill="#f8fbff"/></svg>
